<mxfile host="app.diagrams.net" agent="Mozilla/5.0 (Windows NT 10.0; Win64; x64) AppleWebKit/537.36 (KHTML, like Gecko) Chrome/131.0.0.0 Safari/537.36" version="26.0.3">
  <diagram name="第 1 页" id="3Tjxv7u2C0OyLJ8Jvodf">
    <mxGraphModel dx="773" dy="390" grid="1" gridSize="10" guides="1" tooltips="1" connect="1" arrows="1" fold="1" page="1" pageScale="1" pageWidth="827" pageHeight="1169" math="0" shadow="0">
      <root>
        <mxCell id="0" />
        <mxCell id="1" parent="0" />
        <mxCell id="lShibrgp9LFaPRdsck0m-5" value="" style="edgeStyle=orthogonalEdgeStyle;rounded=0;orthogonalLoop=1;jettySize=auto;html=1;" edge="1" parent="1" source="lShibrgp9LFaPRdsck0m-2" target="fOzb50ySwWJ3ohKRRDMO-3">
          <mxGeometry relative="1" as="geometry" />
        </mxCell>
        <mxCell id="lShibrgp9LFaPRdsck0m-2" value="&lt;font face=&quot;宋体&quot;&gt;输入&lt;/font&gt;" style="text;html=1;align=center;verticalAlign=middle;resizable=0;points=[];autosize=1;strokeColor=none;fillColor=none;" vertex="1" parent="1">
          <mxGeometry x="50" y="65" width="50" height="30" as="geometry" />
        </mxCell>
        <mxCell id="fOzb50ySwWJ3ohKRRDMO-1" value="" style="rounded=0;whiteSpace=wrap;html=1;dashed=1;fontSize=12;fontFamily=宋体;strokeWidth=0.7;" parent="1" vertex="1">
          <mxGeometry x="120" y="40" width="260" height="80" as="geometry" />
        </mxCell>
        <mxCell id="fOzb50ySwWJ3ohKRRDMO-2" value="" style="rounded=0;whiteSpace=wrap;html=1;fontSize=12;fontFamily=宋体;strokeWidth=0.7;" parent="1" vertex="1">
          <mxGeometry x="130" y="53.75" width="160" height="52.5" as="geometry" />
        </mxCell>
        <mxCell id="fOzb50ySwWJ3ohKRRDMO-3" value="&lt;font style=&quot;font-size: 10px;&quot;&gt;卷积层&lt;/font&gt;" style="rounded=0;whiteSpace=wrap;html=1;fontSize=12;fontFamily=宋体;strokeWidth=0.7;" parent="1" vertex="1">
          <mxGeometry x="140" y="70" width="50" height="20" as="geometry" />
        </mxCell>
        <mxCell id="fOzb50ySwWJ3ohKRRDMO-4" value="&lt;font style=&quot;font-size: 10px;&quot;&gt;激活函数&lt;/font&gt;" style="rounded=0;whiteSpace=wrap;html=1;fontSize=12;fontFamily=宋体;strokeWidth=0.7;" parent="1" vertex="1">
          <mxGeometry x="210" y="70" width="60" height="20" as="geometry" />
        </mxCell>
        <mxCell id="fOzb50ySwWJ3ohKRRDMO-6" value="&lt;font style=&quot;font-size: 10px;&quot;&gt;池化层&lt;/font&gt;" style="rounded=0;whiteSpace=wrap;html=1;fontSize=12;fontFamily=宋体;strokeWidth=0.7;" parent="1" vertex="1">
          <mxGeometry x="303" y="70" width="60" height="20" as="geometry" />
        </mxCell>
        <mxCell id="fOzb50ySwWJ3ohKRRDMO-7" value="&lt;font style=&quot;font-size: 10px;&quot;&gt;全连接层&lt;/font&gt;" style="rounded=0;whiteSpace=wrap;html=1;fontSize=12;fontFamily=宋体;strokeWidth=0.7;" parent="1" vertex="1">
          <mxGeometry x="395" y="70" width="60" height="20" as="geometry" />
        </mxCell>
        <mxCell id="fOzb50ySwWJ3ohKRRDMO-8" value="特征提取" style="text;html=1;align=center;verticalAlign=middle;whiteSpace=wrap;rounded=0;fontFamily=宋体;fontSize=11;" parent="1" vertex="1">
          <mxGeometry x="319" y="95" width="60" height="30" as="geometry" />
        </mxCell>
        <mxCell id="fOzb50ySwWJ3ohKRRDMO-9" value="&lt;font style=&quot;&quot;&gt;&lt;font style=&quot;font-size: 9px;&quot;&gt;×&lt;/font&gt;&lt;font style=&quot;font-size: 9px;&quot;&gt;n&lt;/font&gt;&lt;/font&gt;" style="text;html=1;align=center;verticalAlign=middle;whiteSpace=wrap;rounded=0;fontFamily=Times New Roman;" parent="1" vertex="1">
          <mxGeometry x="338" y="32" width="60" height="30" as="geometry" />
        </mxCell>
        <mxCell id="lShibrgp9LFaPRdsck0m-4" value="" style="endArrow=classicThin;html=1;rounded=0;entryX=0;entryY=0.5;entryDx=0;entryDy=0;endFill=1;" edge="1" parent="1">
          <mxGeometry width="50" height="50" relative="1" as="geometry">
            <mxPoint x="90" y="80" as="sourcePoint" />
            <mxPoint x="120" y="79.66" as="targetPoint" />
          </mxGeometry>
        </mxCell>
        <mxCell id="lShibrgp9LFaPRdsck0m-6" value="&lt;font style=&quot;&quot;&gt;&lt;font style=&quot;font-size: 9px;&quot;&gt;×&lt;/font&gt;&lt;font style=&quot;font-size: 9px;&quot;&gt;m&lt;/font&gt;&lt;/font&gt;" style="text;html=1;align=center;verticalAlign=middle;whiteSpace=wrap;rounded=0;fontFamily=Times New Roman;" vertex="1" parent="1">
          <mxGeometry x="249" y="45" width="60" height="30" as="geometry" />
        </mxCell>
        <mxCell id="lShibrgp9LFaPRdsck0m-8" value="" style="endArrow=classicThin;html=1;rounded=0;entryX=0;entryY=0.5;entryDx=0;entryDy=0;exitX=1;exitY=0.5;exitDx=0;exitDy=0;endFill=1;" edge="1" parent="1" source="fOzb50ySwWJ3ohKRRDMO-3" target="fOzb50ySwWJ3ohKRRDMO-4">
          <mxGeometry width="50" height="50" relative="1" as="geometry">
            <mxPoint x="200" y="240" as="sourcePoint" />
            <mxPoint x="250" y="190" as="targetPoint" />
          </mxGeometry>
        </mxCell>
        <mxCell id="lShibrgp9LFaPRdsck0m-9" value="" style="endArrow=classicThin;html=1;rounded=0;entryX=0;entryY=0.5;entryDx=0;entryDy=0;exitX=1;exitY=0.5;exitDx=0;exitDy=0;endFill=1;" edge="1" parent="1" source="fOzb50ySwWJ3ohKRRDMO-4" target="fOzb50ySwWJ3ohKRRDMO-6">
          <mxGeometry width="50" height="50" relative="1" as="geometry">
            <mxPoint x="150" y="210" as="sourcePoint" />
            <mxPoint x="200" y="160" as="targetPoint" />
          </mxGeometry>
        </mxCell>
        <mxCell id="lShibrgp9LFaPRdsck0m-10" value="" style="endArrow=classicThin;html=1;rounded=0;entryX=0;entryY=0.5;entryDx=0;entryDy=0;exitX=1;exitY=0.5;exitDx=0;exitDy=0;endFill=1;" edge="1" parent="1" source="fOzb50ySwWJ3ohKRRDMO-6" target="fOzb50ySwWJ3ohKRRDMO-7">
          <mxGeometry width="50" height="50" relative="1" as="geometry">
            <mxPoint x="200" y="200" as="sourcePoint" />
            <mxPoint x="250" y="150" as="targetPoint" />
          </mxGeometry>
        </mxCell>
        <mxCell id="lShibrgp9LFaPRdsck0m-12" value="&lt;font face=&quot;宋体&quot;&gt;输出&lt;/font&gt;" style="text;html=1;align=center;verticalAlign=middle;resizable=0;points=[];autosize=1;strokeColor=none;fillColor=none;" vertex="1" parent="1">
          <mxGeometry x="453" y="56.75" width="50" height="30" as="geometry" />
        </mxCell>
        <mxCell id="lShibrgp9LFaPRdsck0m-11" value="" style="endArrow=classicThin;html=1;rounded=0;exitX=1;exitY=0.5;exitDx=0;exitDy=0;endFill=1;" edge="1" parent="1" source="fOzb50ySwWJ3ohKRRDMO-7">
          <mxGeometry width="50" height="50" relative="1" as="geometry">
            <mxPoint x="440" y="200" as="sourcePoint" />
            <mxPoint x="510" y="80" as="targetPoint" />
          </mxGeometry>
        </mxCell>
        <mxCell id="lShibrgp9LFaPRdsck0m-13" value="&lt;font face=&quot;Times New Roman&quot;&gt;SoftMax&lt;/font&gt;" style="text;html=1;align=center;verticalAlign=middle;resizable=0;points=[];autosize=1;strokeColor=none;fillColor=none;" vertex="1" parent="1">
          <mxGeometry x="499" y="65" width="70" height="30" as="geometry" />
        </mxCell>
      </root>
    </mxGraphModel>
  </diagram>
</mxfile>
